<?xml version="1.0" encoding="UTF-8" standalone="no"?>
<!-- Created with Inkscape (http://www.inkscape.org/) -->

<svg
   xmlns:dc="http://purl.org/dc/elements/1.1/"
   xmlns:cc="http://creativecommons.org/ns#"
   xmlns:rdf="http://www.w3.org/1999/02/22-rdf-syntax-ns#"
   xmlns:svg="http://www.w3.org/2000/svg"
   xmlns="http://www.w3.org/2000/svg"
   xmlns:sodipodi="http://sodipodi.sourceforge.net/DTD/sodipodi-0.dtd"
   xmlns:inkscape="http://www.inkscape.org/namespaces/inkscape"
   width="686.31708"
   height="283.85284"
   viewBox="0 0 181.58805 75.102732"
   version="1.1"
   id="svg8"
   inkscape:version="0.92.1 r15371"
   sodipodi:docname="introduction.svg">
  <defs
     id="defs2" />
  <sodipodi:namedview
     id="base"
     pagecolor="#ffffff"
     bordercolor="#666666"
     borderopacity="1.0"
     inkscape:pageopacity="0.0"
     inkscape:pageshadow="2"
     inkscape:zoom="0.98994949"
     inkscape:cx="370.12783"
     inkscape:cy="170.92122"
     inkscape:document-units="px"
     inkscape:current-layer="layer4"
     showgrid="false"
     units="px"
     inkscape:window-width="1920"
     inkscape:window-height="1028"
     inkscape:window-x="1272"
     inkscape:window-y="-8"
     inkscape:window-maximized="1" />
  <metadata
     id="metadata5">
    <rdf:RDF>
      <cc:Work
         rdf:about="">
        <dc:format>image/svg+xml</dc:format>
        <dc:type
           rdf:resource="http://purl.org/dc/dcmitype/StillImage" />
        <dc:title></dc:title>
      </cc:Work>
    </rdf:RDF>
  </metadata>
  <g
     inkscape:groupmode="layer"
     id="layer2"
     inkscape:label="c"
     style="display:inline"
     transform="translate(-30.089394,-24.046159)">
    <path
       style="fill:#99cc00;fill-opacity:1;stroke:none;stroke-width:0.26458332;stroke-opacity:1"
       d="M 89.431656,63.858982 A 29.671131,29.671131 0 0 1 59.760525,93.530113 29.671131,29.671131 0 0 1 30.089394,63.858982 29.671131,29.671131 0 0 1 59.760525,34.187851 29.671131,29.671131 0 0 1 89.431656,63.858982 Z"
       id="path4502"
       inkscape:connector-curvature="0" />
  </g>
  <g
     inkscape:groupmode="layer"
     id="layer3"
     inkscape:label="c2"
     style="display:inline"
     transform="translate(-30.089394,-24.046159)">
    <path
       style="fill:#99cc00;fill-opacity:1;stroke:none;stroke-width:0.26458332;stroke-opacity:1"
       d="m 173.99248,41.552315 a 8.4189901,8.4189901 0 0 1 -8.41899,8.41899 8.4189901,8.4189901 0 0 1 -8.41899,-8.41899 8.4189901,8.4189901 0 0 1 8.41899,-8.41899 8.4189901,8.4189901 0 0 1 8.41899,8.41899 z"
       id="path4509"
       inkscape:connector-curvature="0" />
  </g>
  <g
     inkscape:groupmode="layer"
     id="layer4"
     inkscape:label="c3"
     transform="translate(-30.089394,-24.046159)">
    <path
       style="fill:#99cc00;fill-opacity:1;stroke:none;stroke-width:0.26458332;stroke-opacity:1"
       d="m 180.40693,28.188837 a 4.1426778,4.1426778 0 0 1 -4.14268,4.142678 4.1426778,4.1426778 0 0 1 -4.14268,-4.142678 4.1426778,4.1426778 0 0 1 4.14268,-4.142678 4.1426778,4.1426778 0 0 1 4.14268,4.142678 z"
       id="path4512"
       inkscape:connector-curvature="0" />
  </g>
  <g
     inkscape:groupmode="layer"
     id="layer5"
     inkscape:label="c4"
     transform="translate(-30.089394,-24.046159)">
    <path
       style="fill:#99cc00;fill-opacity:1;stroke:none;stroke-width:0.26458332;stroke-opacity:1"
       d="m 211.67746,88.190842 a 10.958051,10.958051 0 0 1 -10.95805,10.95805 10.958051,10.958051 0 0 1 -10.95805,-10.95805 10.958051,10.958051 0 0 1 10.95805,-10.958051 10.958051,10.958051 0 0 1 10.95805,10.958051 z"
       id="path4515"
       inkscape:connector-curvature="0" />
  </g>
  <g
     inkscape:groupmode="layer"
     id="layer6"
     inkscape:label="c5"
     transform="translate(-30.089394,-24.046159)" />
  <g
     inkscape:label="tekst"
     inkscape:groupmode="layer"
     id="layer1"
     transform="translate(-30.089394,-162.29617)"
     style="display:inline">
    <text
       xml:space="preserve"
       style="font-style:normal;font-variant:normal;font-weight:normal;font-stretch:normal;font-size:5.64444447px;line-height:1.25;font-family:'Open Sans';-inkscape-font-specification:'Open Sans';letter-spacing:0px;word-spacing:0px;fill:#000000;fill-opacity:1;stroke:none;stroke-width:0.26458332"
       x="57.195675"
       y="233.38985"
       id="text4487"><tspan
         sodipodi:role="line"
         x="57.195675"
         y="238.3911"
         style="font-style:normal;font-variant:normal;font-weight:normal;font-stretch:normal;font-size:35.27777863px;font-family:'Open Sans';-inkscape-font-specification:'Open Sans';stroke-width:0.26458332"
         id="tspan4489" /></text>
    <g
       aria-label="PRZEDSTAWIAMY"
       style="font-style:normal;font-variant:normal;font-weight:normal;font-stretch:normal;font-size:17.63888741px;line-height:1.25;font-family:Adequate;-inkscape-font-specification:Adequate;letter-spacing:0px;word-spacing:0px;fill:#000000;fill-opacity:1;stroke:none;stroke-width:0.26458332"
       id="text4495">
      <path
         d="m 69.193263,197.37099 q 0,1.52963 -1.047309,2.35645 -1.040419,0.81993 -2.983453,0.81993 h -1.185113 v 3.96186 h -1.171332 v -10.07346 h 2.611382 q 3.775825,0 3.775825,2.93522 z m -5.215875,2.17041 h 1.054199 q 1.557183,0 2.253093,-0.50298 0.695909,-0.50298 0.695909,-1.6123 0,-0.99908 -0.654568,-1.48829 -0.654568,-0.4892 -2.039497,-0.4892 h -1.309136 z"
         style="font-style:normal;font-variant:normal;font-weight:normal;font-stretch:normal;font-size:14.11111069px;font-family:'Open Sans';-inkscape-font-specification:'Open Sans';fill:#ffffff;stroke-width:0.26458332"
         id="path4551"
         inkscape:connector-curvature="0" />
      <path
         d="m 72.466103,200.32 v 4.18923 h -1.171332 v -10.07346 h 2.762966 q 1.853462,0 2.735406,0.70969 0.888835,0.70969 0.888835,2.13596 0,1.99816 -2.025716,2.70096 l 2.735405,4.52685 H 77.006739 L 74.567611,200.32 Z m 0,-1.00597 h 1.605415 q 1.240234,0 1.81901,-0.48921 0.578776,-0.49609 0.578776,-1.48139 0,-0.99907 -0.592556,-1.44005 -0.585667,-0.44097 -1.887913,-0.44097 h -1.522732 z"
         style="font-style:normal;font-variant:normal;font-weight:normal;font-stretch:normal;font-size:14.11111069px;font-family:'Open Sans';-inkscape-font-specification:'Open Sans';fill:#ffffff;stroke-width:0.26458332"
         id="path4553"
         inkscape:connector-curvature="0" />
      <path
         d="M 86.136242,204.50923 H 79.2116 v -0.91639 l 5.346788,-8.10287 h -5.181423 v -1.0542 h 6.607693 v 0.9164 l -5.346788,8.09597 h 5.498372 z"
         style="font-style:normal;font-variant:normal;font-weight:normal;font-stretch:normal;font-size:14.11111069px;font-family:'Open Sans';-inkscape-font-specification:'Open Sans';fill:#ffffff;stroke-width:0.26458332"
         id="path4555"
         inkscape:connector-curvature="0" />
      <path
         d="m 93.694781,204.50923 h -5.615505 v -10.07346 h 5.615505 v 1.04042 h -4.444173 v 3.24528 h 4.175456 v 1.03353 h -4.175456 v 3.70692 h 4.444173 z"
         style="font-style:normal;font-variant:normal;font-weight:normal;font-stretch:normal;font-size:14.11111069px;font-family:'Open Sans';-inkscape-font-specification:'Open Sans';fill:#ffffff;stroke-width:0.26458332"
         id="path4557"
         inkscape:connector-curvature="0" />
      <path
         d="m 103.97494,199.37604 q 0,2.49425 -1.35736,3.81717 -1.35048,1.31602 -3.892961,1.31602 h -2.790527 v -10.07346 h 3.086806 q 2.349552,0 3.651802,1.30225 1.30224,1.30224 1.30224,3.63802 z m -1.24023,0.0413 q 0,-1.97059 -0.99219,-2.96967 -0.98529,-0.99908 -2.935218,-0.99908 h -1.701877 v 8.04774 h 1.426269 q 2.094616,0 3.148816,-1.02663 1.0542,-1.03353 1.0542,-3.05236 z"
         style="font-style:normal;font-variant:normal;font-weight:normal;font-stretch:normal;font-size:14.11111069px;font-family:'Open Sans';-inkscape-font-specification:'Open Sans';fill:#ffffff;stroke-width:0.26458332"
         id="path4559"
         inkscape:connector-curvature="0" />
      <path
         d="m 111.89867,201.82895 q 0,1.3298 -0.96463,2.07394 -0.96463,0.74415 -2.61827,0.74415 -1.79145,0 -2.75608,-0.46165 v -1.12999 q 0.62012,0.26183 1.35048,0.41341 0.73036,0.15159 1.44694,0.15159 1.17133,0 1.76389,-0.44098 0.59255,-0.44786 0.59255,-1.24023 0,-0.52365 -0.21359,-0.85438 -0.20671,-0.33762 -0.7028,-0.62012 -0.48921,-0.2825 -1.49517,-0.64079 -1.4056,-0.50298 -2.01194,-1.192 -0.59945,-0.68902 -0.59945,-1.79834 0,-1.16444 0.87506,-1.85346 0.87505,-0.68902 2.3151,-0.68902 1.50206,0 2.76297,0.55121 l -0.36518,1.01975 q -1.24713,-0.52365 -2.42535,-0.52365 -0.93017,0 -1.45383,0.39963 -0.52365,0.39963 -0.52365,1.10932 0,0.52365 0.19292,0.86127 0.19293,0.33073 0.64768,0.61323 0.46164,0.27561 1.4056,0.61323 1.58474,0.56499 2.1773,1.21267 0.59945,0.64768 0.59945,1.68121 z"
         style="font-style:normal;font-variant:normal;font-weight:normal;font-stretch:normal;font-size:14.11111069px;font-family:'Open Sans';-inkscape-font-specification:'Open Sans';fill:#ffffff;stroke-width:0.26458332"
         id="path4561"
         inkscape:connector-curvature="0" />
      <path
         d="m 117.05942,204.50923 h -1.17133 v -9.03304 h -3.19016 v -1.04042 h 7.55165 v 1.04042 h -3.19016 z"
         style="font-style:normal;font-variant:normal;font-weight:normal;font-stretch:normal;font-size:14.11111069px;font-family:'Open Sans';-inkscape-font-specification:'Open Sans';fill:#ffffff;stroke-width:0.26458332"
         id="path4563"
         inkscape:connector-curvature="0" />
      <path
         d="m 128.09061,204.50923 -1.25401,-3.20394 h -4.03765 l -1.24024,3.20394 h -1.18511 l 3.98253,-10.1148 h 0.9853 l 3.96186,10.1148 z m -1.61919,-4.25814 -1.17133,-3.12125 q -0.22738,-0.59256 -0.46854,-1.45383 -0.15158,0.66146 -0.43408,1.45383 l -1.18511,3.12125 z"
         style="font-style:normal;font-variant:normal;font-weight:normal;font-stretch:normal;font-size:14.11111069px;font-family:'Open Sans';-inkscape-font-specification:'Open Sans';fill:#ffffff;stroke-width:0.26458332"
         id="path4565"
         inkscape:connector-curvature="0" />
      <path
         d="m 139.4801,204.50923 h -1.15756 l -2.0326,-6.7455 q -0.1447,-0.44786 -0.32384,-1.12999 -0.17915,-0.68213 -0.18604,-0.81993 -0.15158,0.90951 -0.48231,1.99127 l -1.97059,6.70415 h -1.15756 l -2.68028,-10.07346 h 1.24023 l 1.59164,6.22184 q 0.33073,1.30914 0.48231,2.37023 0.18604,-1.2609 0.55122,-2.46669 l 1.80523,-6.12538 h 1.24023 l 1.8948,6.1805 q 0.33073,1.06798 0.55811,2.41157 0.13091,-0.97841 0.49609,-2.38401 l 1.58475,-6.20806 h 1.24023 z"
         style="font-style:normal;font-variant:normal;font-weight:normal;font-stretch:normal;font-size:14.11111069px;font-family:'Open Sans';-inkscape-font-specification:'Open Sans';fill:#ffffff;stroke-width:0.26458332"
         id="path4567"
         inkscape:connector-curvature="0" />
      <path
         d="m 143.75202,204.50923 v -10.07346 h 1.17133 v 10.07346 z"
         style="font-style:normal;font-variant:normal;font-weight:normal;font-stretch:normal;font-size:14.11111069px;font-family:'Open Sans';-inkscape-font-specification:'Open Sans';fill:#ffffff;stroke-width:0.26458332"
         id="path4569"
         inkscape:connector-curvature="0" />
      <path
         d="m 154.02529,204.50923 -1.25401,-3.20394 h -4.03765 l -1.24024,3.20394 h -1.18511 l 3.98253,-10.1148 h 0.9853 l 3.96186,10.1148 z m -1.61919,-4.25814 -1.17133,-3.12125 q -0.22738,-0.59256 -0.46854,-1.45383 -0.15158,0.66146 -0.43408,1.45383 l -1.18511,3.12125 z"
         style="font-style:normal;font-variant:normal;font-weight:normal;font-stretch:normal;font-size:14.11111069px;font-family:'Open Sans';-inkscape-font-specification:'Open Sans';fill:#ffffff;stroke-width:0.26458332"
         id="path4571"
         inkscape:connector-curvature="0" />
      <path
         d="m 161.08085,204.50923 -3.41753,-8.92969 h -0.0551 q 0.0965,1.06109 0.0965,2.52181 v 6.40788 h -1.08176 v -10.07346 h 1.76389 l 3.19015,8.30957 h 0.0551 l 3.21771,-8.30957 h 1.75011 v 10.07346 h -1.17133 v -6.49056 q 0,-1.11621 0.0965,-2.42535 h -0.0551 l -3.44509,8.91591 z"
         style="font-style:normal;font-variant:normal;font-weight:normal;font-stretch:normal;font-size:14.11111069px;font-family:'Open Sans';-inkscape-font-specification:'Open Sans';fill:#ffffff;stroke-width:0.26458332"
         id="path4573"
         inkscape:connector-curvature="0" />
      <path
         d="m 171.91912,199.4725 2.68717,-5.03673 h 1.2678 l -3.36242,6.16672 v 3.90674 h -1.18511 v -3.85162 l -3.35552,-6.22184 h 1.28157 z"
         style="font-style:normal;font-variant:normal;font-weight:normal;font-stretch:normal;font-size:14.11111069px;font-family:'Open Sans';-inkscape-font-specification:'Open Sans';fill:#ffffff;stroke-width:0.26458332"
         id="path4575"
         inkscape:connector-curvature="0" />
    </g>
    <g
       aria-label="SMOOTH.MONEY"
       style="font-style:normal;font-variant:normal;font-weight:normal;font-stretch:normal;font-size:17.63888741px;line-height:1.25;font-family:Adequate;-inkscape-font-specification:Adequate;letter-spacing:0px;word-spacing:0px;fill:#000000;fill-opacity:1;stroke:none;stroke-width:0.26458332"
       id="text4499">
      <path
         d="m 51.034343,223.43331 q 0,0.98778 -0.564444,1.65805 -0.564445,0.67028 -1.42875,1.09361 -0.864306,0.4057 -1.905,0.58209 -1.040694,0.19403 -1.975555,0.19403 -0.705556,0 -1.464028,-0.0882 -0.758472,-0.0882 -1.516944,-0.28222 -0.758472,-0.21167 -1.516945,-0.52917 -0.740833,-0.3175 -1.428749,-0.79375 l 0.440972,-0.42333 q 0.599722,0.40569 1.305277,0.72319 0.705556,0.29986 1.42875,0.51153 0.723195,0.19403 1.42875,0.29986 0.705556,0.0882 1.305278,0.0882 0.635,0 1.322916,-0.0706 0.687917,-0.0882 1.340556,-0.26458 0.652639,-0.19403 1.199444,-0.49389 0.564445,-0.3175 0.9525,-0.77611 0.211667,-0.24695 0.352778,-0.61736 0.141111,-0.37042 0.141111,-0.77611 0,-0.68792 -0.3175,-1.18181 -0.3175,-0.49389 -0.776111,-0.82903 -0.440972,-0.35277 -0.970139,-0.56444 -0.511528,-0.22931 -0.899583,-0.35278 -0.299861,-0.10583 -0.582083,-0.17639 -0.264584,-0.0705 -0.511528,-0.14111 l -3.051528,-0.79375 q -0.881944,-0.2293 -1.640416,-0.52917 -0.740833,-0.3175 -1.287639,-0.74083 -0.546805,-0.42333 -0.846667,-0.98778 -0.299861,-0.58208 -0.299861,-1.35819 0,-0.97014 0.529167,-1.64042 0.546805,-0.67028 1.393472,-1.07597 0.846667,-0.40569 1.869722,-0.58208 1.023056,-0.19403 1.993194,-0.19403 1.42875,0 2.8575,0.37042 1.42875,0.37041 2.769306,1.39347 l -0.388056,0.38805 q -0.582083,-0.44097 -1.252361,-0.75847 -0.670278,-0.3175 -1.358194,-0.51153 -0.687917,-0.19402 -1.358195,-0.28222 -0.670277,-0.10583 -1.234722,-0.10583 -0.511528,0 -1.181805,0.0706 -0.652639,0.0706 -1.322917,0.24695 -0.652639,0.17639 -1.252361,0.49389 -0.599722,0.3175 -1.005416,0.81139 -0.211667,0.24694 -0.352778,0.635 -0.141111,0.38805 -0.141111,0.77611 0,0.68791 0.335139,1.1818 0.335138,0.49389 0.829027,0.84667 0.511528,0.35278 1.075972,0.58208 0.582084,0.21167 1.058334,0.35278 0.3175,0.0882 0.617361,0.15875 0.299861,0.0706 0.546805,0.14111 l 2.557639,0.67028 q 0.864305,0.2293 1.622778,0.5468 0.758472,0.29987 1.322916,0.74084 0.564445,0.44097 0.899583,1.02305 0.335139,0.58209 0.335139,1.34056 z"
         style="fill:#ffffff;stroke-width:0.26458332"
         id="path4526"
         inkscape:connector-curvature="0" />
      <path
         d="M 68.145166,226.6965 H 67.616 v -13.29972 l -6.790972,9.08403 -6.790972,-9.11931 v 13.335 H 53.50489 v -14.11111 h 0.546805 l 6.773333,9.08403 6.773333,-9.08403 h 0.546805 z"
         style="fill:#ffffff;stroke-width:0.26458332"
         id="path4528"
         inkscape:connector-curvature="0" />
      <path
         d="m 85.241382,219.62331 q 0,1.51694 -0.582083,2.8575 -0.564444,1.32292 -1.569861,2.32833 -0.987778,0.98778 -2.328333,1.56986 -1.322917,0.58209 -2.822222,0.58209 -1.516944,0 -2.8575,-0.58209 -1.322916,-0.58208 -2.328333,-1.56986 -0.987778,-1.00541 -1.569861,-2.32833 -0.564444,-1.34056 -0.564444,-2.8575 0,-1.49931 0.564444,-2.82222 0.582083,-1.34056 1.569861,-2.32834 1.005417,-1.00541 2.328333,-1.56986 1.340556,-0.58208 2.8575,-0.58208 1.499305,0 2.822222,0.58208 1.340555,0.56445 2.328333,1.56986 1.005417,0.98778 1.569861,2.32834 0.582083,1.32291 0.582083,2.82222 z m -0.564444,0 q 0,-1.37583 -0.529167,-2.61056 -0.529166,-1.23472 -1.446388,-2.16958 -0.917223,-0.93486 -2.151945,-1.48167 -1.217083,-0.5468 -2.610555,-0.5468 -1.411111,0 -2.645833,0.5468 -1.217083,0.54681 -2.134306,1.48167 -0.917222,0.93486 -1.446388,2.16958 -0.529167,1.23473 -0.529167,2.61056 0,1.37583 0.529167,2.62819 0.529166,1.23473 1.446388,2.18723 0.917223,0.93486 2.134306,1.48166 1.234722,0.54681 2.645833,0.54681 1.393472,0 2.610555,-0.54681 1.234722,-0.5468 2.151945,-1.48166 0.917222,-0.9525 1.446388,-2.18723 0.529167,-1.25236 0.529167,-2.62819 z"
         style="fill:#ffffff;stroke-width:0.26458332"
         id="path4530"
         inkscape:connector-curvature="0" />
      <path
         d="m 102.019,219.62331 q 0,1.51694 -0.58209,2.8575 -0.56444,1.32292 -1.569859,2.32833 -0.987778,0.98778 -2.328333,1.56986 -1.322917,0.58209 -2.822222,0.58209 -1.516945,0 -2.8575,-0.58209 -1.322917,-0.58208 -2.328333,-1.56986 -0.987778,-1.00541 -1.569861,-2.32833 -0.564445,-1.34056 -0.564445,-2.8575 0,-1.49931 0.564445,-2.82222 0.582083,-1.34056 1.569861,-2.32834 1.005416,-1.00541 2.328333,-1.56986 1.340555,-0.58208 2.8575,-0.58208 1.499305,0 2.822222,0.58208 1.340555,0.56445 2.328333,1.56986 1.005419,0.98778 1.569859,2.32834 0.58209,1.32291 0.58209,2.82222 z m -0.56445,0 q 0,-1.37583 -0.52917,-2.61056 -0.52916,-1.23472 -1.446385,-2.16958 -0.917222,-0.93486 -2.151944,-1.48167 -1.217083,-0.5468 -2.610555,-0.5468 -1.411111,0 -2.645833,0.5468 -1.217084,0.54681 -2.134306,1.48167 -0.917222,0.93486 -1.446389,2.16958 -0.529166,1.23473 -0.529166,2.61056 0,1.37583 0.529166,2.62819 0.529167,1.23473 1.446389,2.18723 0.917222,0.93486 2.134306,1.48166 1.234722,0.54681 2.645833,0.54681 1.393472,0 2.610555,-0.54681 1.234722,-0.5468 2.151944,-1.48166 0.917225,-0.9525 1.446385,-2.18723 0.52917,-1.25236 0.52917,-2.62819 z"
         style="fill:#ffffff;stroke-width:0.26458332"
         id="path4532"
         inkscape:connector-curvature="0" />
      <path
         d="m 114.80085,213.07928 h -5.66208 v 13.61722 h -0.52917 v -13.61722 h -5.66208 v -0.49389 h 11.85333 z"
         style="fill:#ffffff;stroke-width:0.26458332"
         id="path4534"
         inkscape:connector-curvature="0" />
      <path
         d="m 127.52565,226.6965 h -0.54681 v -6.68514 h -10.05416 v 6.68514 h -0.54681 v -14.11111 h 0.54681 v 6.93209 h 10.05416 v -6.93209 h 0.54681 z"
         style="fill:#ffffff;stroke-width:0.26458332"
         id="path4536"
         inkscape:connector-curvature="0" />
      <path
         d="m 132.84229,225.56761 q 0,0.56445 -0.39511,0.95956 -0.36689,0.39511 -0.93134,0.39511 -0.56444,0 -0.95955,-0.39511 -0.36689,-0.39511 -0.36689,-0.95956 0,-0.56444 0.36689,-0.93133 0.39511,-0.39511 0.95955,-0.39511 0.56445,0 0.93134,0.39511 0.39511,0.36689 0.39511,0.93133 z"
         style="font-size:28.22222137px;fill:#99cc00;fill-opacity:1"
         id="path4538"
         inkscape:connector-curvature="0" />
      <path
         d="m 150.42782,226.6965 h -0.52917 v -13.29972 l -6.79097,9.08403 -6.79097,-9.11931 v 13.335 h -0.52917 v -14.11111 h 0.54681 l 6.77333,9.08403 6.77333,-9.08403 h 0.54681 z"
         style="fill:#ffffff;stroke-width:0.26458332"
         id="path4540"
         inkscape:connector-curvature="0" />
      <path
         d="m 167.52404,219.62331 q 0,1.51694 -0.58209,2.8575 -0.56444,1.32292 -1.56986,2.32833 -0.98777,0.98778 -2.32833,1.56986 -1.32292,0.58209 -2.82222,0.58209 -1.51695,0 -2.8575,-0.58209 -1.32292,-0.58208 -2.32833,-1.56986 -0.98778,-1.00541 -1.56987,-2.32833 -0.56444,-1.34056 -0.56444,-2.8575 0,-1.49931 0.56444,-2.82222 0.58209,-1.34056 1.56987,-2.32834 1.00541,-1.00541 2.32833,-1.56986 1.34055,-0.58208 2.8575,-0.58208 1.4993,0 2.82222,0.58208 1.34056,0.56445 2.32833,1.56986 1.00542,0.98778 1.56986,2.32834 0.58209,1.32291 0.58209,2.82222 z m -0.56445,0 q 0,-1.37583 -0.52916,-2.61056 -0.52917,-1.23472 -1.44639,-2.16958 -0.91722,-0.93486 -2.15195,-1.48167 -1.21708,-0.5468 -2.61055,-0.5468 -1.41111,0 -2.64583,0.5468 -1.21709,0.54681 -2.13431,1.48167 -0.91722,0.93486 -1.44639,2.16958 -0.52917,1.23473 -0.52917,2.61056 0,1.37583 0.52917,2.62819 0.52917,1.23473 1.44639,2.18723 0.91722,0.93486 2.13431,1.48166 1.23472,0.54681 2.64583,0.54681 1.39347,0 2.61055,-0.54681 1.23473,-0.5468 2.15195,-1.48166 0.91722,-0.9525 1.44639,-2.18723 0.52916,-1.25236 0.52916,-2.62819 z"
         style="fill:#ffffff;stroke-width:0.26458332"
         id="path4542"
         inkscape:connector-curvature="0" />
      <path
         d="m 181.9204,226.71414 h -0.61736 l -10.68917,-13.37028 0.0176,13.37028 h -0.59972 v -14.12875 h 0.61736 l 10.67153,13.31736 v -13.31736 h 0.59972 z"
         style="fill:#ffffff;stroke-width:0.26458332"
         id="path4544"
         inkscape:connector-curvature="0" />
      <path
         d="m 195.36096,226.71414 h -10.61862 v -14.12875 h 10.61862 v 0.49389 h -10.07181 v 6.22653 h 8.99583 v 0.49389 h -8.99583 v 6.42055 h 10.07181 z"
         style="fill:#ffffff;stroke-width:0.26458332"
         id="path4546"
         inkscape:connector-curvature="0" />
      <path
         d="m 208.6017,212.58539 -5.90903,7.97278 v 6.13833 h -0.52916 v -6.13833 l -5.90903,-7.97278 h 0.65264 l 5.52097,7.46125 5.48569,-7.46125 z"
         style="fill:#ffffff;stroke-width:0.26458332"
         id="path4548"
         inkscape:connector-curvature="0" />
    </g>
  </g>
</svg>
